<svg viewBox="0 0 240 160" xmlns="http://www.w3.org/2000/svg">
  <path fill-rule="evenodd" clip-rule="evenodd" d="M50 92 C50 46 80 16 120 16 C160 16 190 46 190 92 L172 92 C172 54 148 32 120 32 C92 32 68 54 68 92 Z" fill="#111827"/>
  <rect x="36" y="80" width="26" height="46" rx="12" fill="#1F2937"/>
  <rect x="178" y="80" width="26" height="46" rx="12" fill="#1F2937"/>
  <rect x="42" y="88" width="14" height="30" rx="7" fill="#EF4444"/>
  <rect x="184" y="88" width="14" height="30" rx="7" fill="#EF4444"/>
  <path d="M60 106 C50 122 52 138 72 146 L76 138 C60 132 58 120 66 108 Z" fill="#1F2937"/>
  <circle cx="76" cy="142" r="7" fill="#EF4444"/>
</svg>
